<?xml version="1.0" encoding="utf-8"?>
<!-- Generator: Adobe Illustrator 18.0.0, SVG Export Plug-In . SVG Version: 6.00 Build 0)  -->
<!DOCTYPE svg PUBLIC "-//W3C//DTD SVG 1.1//EN" "http://www.w3.org/Graphics/SVG/1.1/DTD/svg11.dtd">
<svg version="1.1" id="Layer_1" xmlns="http://www.w3.org/2000/svg" xmlns:xlink="http://www.w3.org/1999/xlink" x="0px" y="0px"
	 viewBox="0 0 40 40" style="enable-background:new 0 0 40 40;" xml:space="preserve">
<style type="text/css">
	.st0{fill:#919191;}
	.st1{fill:none;}
	.st2{fill:#999999;}
</style>
<g>
	<path class="st0" d="M-159.7,5.5l3.5,11l0.2,0.7l0.7,0l11.6-0.1l-9.4,6.7l-0.6,0.4l0.2,0.7l3.7,11l-9.3-6.9l-0.6-0.4l-0.6,0.4
		l-9.3,6.9l3.7-11l0.2-0.7l-0.6-0.4l-9.4-6.7l11.6,0.1l0.7,0l0.2-0.7L-159.7,5.5 M-159.7,2.2l-4.4,14l-14.7-0.1l12,8.6l-4.7,14
		l11.8-8.7l11.8,8.7l-4.7-14l12-8.6l-14.7,0.1L-159.7,2.2L-159.7,2.2z"/>
</g>
<path class="st1" d="M-69.5,3.1c-9.2,0-16.7,7.5-16.7,16.7s7.5,16.7,16.7,16.7s16.7-7.5,16.7-16.7S-60.3,3.1-69.5,3.1z M-68.5,21.6
	h-10.1v-0.7h9.4V8h0.7V21.6z"/>
<path class="st0" d="M-69.5,2.4c-9.6,0-17.4,7.8-17.4,17.4c0,9.6,7.8,17.4,17.4,17.4s17.4-7.8,17.4-17.4
	C-52.1,10.2-59.9,2.4-69.5,2.4z M-69.5,36.6c-9.2,0-16.7-7.5-16.7-16.7s7.5-16.7,16.7-16.7s16.7,7.5,16.7,16.7S-60.3,36.6-69.5,36.6
	z"/>
<polygon class="st0" points="-69.2,20.9 -78.6,20.9 -78.6,21.6 -68.5,21.6 -68.5,8 -69.2,8 "/>
<circle class="st1" cx="95.8" cy="20.2" r="3.1"/>
<circle class="st1" cx="107.8" cy="20.2" r="3.1"/>
<circle class="st1" cx="107.8" cy="32" r="3.1"/>
<circle class="st1" cx="119.6" cy="8.2" r="3.1"/>
<circle class="st1" cx="95.8" cy="32" r="3.1"/>
<circle class="st1" cx="95.8" cy="8.2" r="3.1"/>
<circle class="st1" cx="119.6" cy="32" r="3.1"/>
<circle class="st1" cx="119.6" cy="20.2" r="3.1"/>
<circle class="st1" cx="107.8" cy="8.2" r="3.1"/>
<path class="st0" d="M95.8,3.7c-2.5,0-4.5,2-4.5,4.5c0,2.5,2,4.5,4.5,4.5c2.5,0,4.5-2,4.5-4.5C100.3,5.7,98.3,3.7,95.8,3.7z
	 M95.8,11.3c-1.7,0-3.1-1.4-3.1-3.1c0-1.7,1.4-3.1,3.1-3.1c1.7,0,3.1,1.4,3.1,3.1C98.9,9.9,97.5,11.3,95.8,11.3z"/>
<path class="st0" d="M107.8,3.7c-2.5,0-4.5,2-4.5,4.5c0,2.5,2,4.5,4.5,4.5c2.5,0,4.5-2,4.5-4.5C112.3,5.7,110.3,3.7,107.8,3.7z
	 M107.8,11.3c-1.7,0-3.1-1.4-3.1-3.1c0-1.7,1.4-3.1,3.1-3.1s3.1,1.4,3.1,3.1C110.9,9.9,109.5,11.3,107.8,11.3z"/>
<path class="st0" d="M119.6,12.7c2.5,0,4.5-2,4.5-4.5c0-2.5-2-4.5-4.5-4.5s-4.5,2-4.5,4.5C115.1,10.7,117.1,12.7,119.6,12.7z
	 M119.6,5.1c1.7,0,3.1,1.4,3.1,3.1c0,1.7-1.4,3.1-3.1,3.1s-3.1-1.4-3.1-3.1C116.5,6.5,117.9,5.1,119.6,5.1z"/>
<path class="st0" d="M95.8,15.7c-2.5,0-4.5,2-4.5,4.5c0,2.5,2,4.5,4.5,4.5c2.5,0,4.5-2,4.5-4.5C100.3,17.7,98.3,15.7,95.8,15.7z
	 M95.8,23.3c-1.7,0-3.1-1.4-3.1-3.1c0-1.7,1.4-3.1,3.1-3.1c1.7,0,3.1,1.4,3.1,3.1C98.9,21.9,97.5,23.3,95.8,23.3z"/>
<path class="st0" d="M107.8,15.7c-2.5,0-4.5,2-4.5,4.5c0,2.5,2,4.5,4.5,4.5c2.5,0,4.5-2,4.5-4.5C112.3,17.7,110.3,15.7,107.8,15.7z
	 M107.8,23.3c-1.7,0-3.1-1.4-3.1-3.1c0-1.7,1.4-3.1,3.1-3.1s3.1,1.4,3.1,3.1C110.9,21.9,109.5,23.3,107.8,23.3z"/>
<path class="st0" d="M119.6,15.7c-2.5,0-4.5,2-4.5,4.5c0,2.5,2,4.5,4.5,4.5s4.5-2,4.5-4.5C124.1,17.7,122.1,15.7,119.6,15.7z
	 M119.6,23.3c-1.7,0-3.1-1.4-3.1-3.1c0-1.7,1.4-3.1,3.1-3.1s3.1,1.4,3.1,3.1C122.8,21.9,121.3,23.3,119.6,23.3z"/>
<path class="st0" d="M95.8,27.5c-2.5,0-4.5,2-4.5,4.5c0,2.5,2,4.5,4.5,4.5c2.5,0,4.5-2,4.5-4.5C100.3,29.6,98.3,27.5,95.8,27.5z
	 M95.8,35.2c-1.7,0-3.1-1.4-3.1-3.1c0-1.7,1.4-3.1,3.1-3.1c1.7,0,3.1,1.4,3.1,3.1C98.9,33.8,97.5,35.2,95.8,35.2z"/>
<path class="st0" d="M107.8,27.5c-2.5,0-4.5,2-4.5,4.5c0,2.5,2,4.5,4.5,4.5c2.5,0,4.5-2,4.5-4.5C112.3,29.6,110.3,27.5,107.8,27.5z
	 M107.8,35.2c-1.7,0-3.1-1.4-3.1-3.1c0-1.7,1.4-3.1,3.1-3.1s3.1,1.4,3.1,3.1C110.9,33.8,109.5,35.2,107.8,35.2z"/>
<path class="st0" d="M119.6,27.5c-2.5,0-4.5,2-4.5,4.5c0,2.5,2,4.5,4.5,4.5s4.5-2,4.5-4.5C124.1,29.6,122.1,27.5,119.6,27.5z
	 M119.6,35.2c-1.7,0-3.1-1.4-3.1-3.1c0-1.7,1.4-3.1,3.1-3.1s3.1,1.4,3.1,3.1C122.8,33.8,121.3,35.2,119.6,35.2z"/>
<path class="st1" d="M31.2,12.2c-4.6,0-8.4,3.7-8.4,8.4c0,4.6,3.8,8.4,8.4,8.4s8.4-3.7,8.4-8.4C39.6,15.9,35.8,12.2,31.2,12.2z"/>
<path class="st1" d="M194.5,20.6c0-4.6-3.8-8.4-8.4-8.4c-4.6,0-8.4,3.7-8.4,8.4c0,4.6,3.8,8.4,8.4,8.4
	C190.8,28.9,194.5,25.2,194.5,20.6z"/>
<path class="st0" d="M209.1,10.8c-5.4,0-9.8,4.4-9.8,9.8c0,3.5,1.9,6.7,4.8,8.4h-13c2.8-1.7,4.8-4.8,4.8-8.4c0-5.4-4.4-9.8-9.8-9.8
	s-9.8,4.4-9.8,9.8c0,5.1,4,9.4,9.1,9.7v0h25.1v-0.1c4.7-0.7,8.4-4.7,8.4-9.6C218.9,15.2,214.5,10.8,209.1,10.8z M177.8,20.6
	c0-4.6,3.8-8.4,8.4-8.4c4.6,0,8.4,3.7,8.4,8.4c0,4.6-3.8,8.4-8.4,8.4C181.5,28.9,177.8,25.2,177.8,20.6z M209.1,28.9
	c-4.6,0-8.4-3.7-8.4-8.4c0-4.6,3.8-8.4,8.4-8.4c4.6,0,8.4,3.7,8.4,8.4C217.5,25.2,213.7,28.9,209.1,28.9z"/>
<path class="st1" d="M24.8,29.1c-0.2-0.1,0-1.3,0-1.3l-1.3-0.2c0-0.1-0.1-1.6-0.1-1.6c1.4-0.5,1.2-3.2,1.2-3.2
	c0.9,0.5,1.4-1.7,1.4-1.7c1-3-0.5-2.8-0.5-2.8c0.5-2.2,0-5.5,0-5.5c-0.7-6.1-11.3-4.2-9.7-2.2c-3.8-1.1-2.5,6.1-2.5,6.1l0.7,1.8
	c-1.3,0.8-0.4,1.8-0.3,3c0.1,1.7,1.1,1.4,1.1,1.4c0.1,2.8,1.5,3.2,1.5,3.2c0.3,1.8,0,1.6,0,1.6h-1.1C15.2,28.2,15,29,15,29
	c-1.5,0.7-1.8,1-3.2,1.7C10.9,31,9.9,31.4,9,31.8c2.8,2.5,6.6,4.1,10.7,4.1c4.3,0,8.2-1.7,11.1-4.5c-0.8-0.3-1.7-0.5-2.5-0.7
	C26.4,30.2,24.8,29.1,24.8,29.1z"/>
<path class="st2" d="M21.7,2.6c-0.2,0-0.5-0.1-0.7-0.1c-2.8-0.4-5.3,0-7.4,1.1C7,5.9,2.2,12.3,2.2,19.9c0,3.5,1,6.8,2.8,9.5
	c0.7,1.4,1.5,2.5,2.4,2.9c3.1,3.1,7.4,5,12.2,5c9.6,0,17.4-7.8,17.4-17.4C37.1,10.9,30.4,3.6,21.7,2.6z M19.7,35.9
	c-4.1,0-7.8-1.5-10.7-4.1c0.9-0.4,1.9-0.8,2.8-1.2c1.5-0.6,1.8-1,3.2-1.7c0,0,0.2-0.8,0.1-1.2h1.1c0,0,0.3,0.2,0-1.6
	c0,0-1.4-0.4-1.5-3.2c0,0-1.1,0.4-1.1-1.4c0-1.2-0.9-2.2,0.3-3l-0.7-1.8c0,0-1.3-7.2,2.5-6.1c-1.6-1.9,9-3.8,9.7,2.2
	c0,0,0.5,3.3,0,5.5c0,0,1.5-0.2,0.5,2.8c0,0-0.6,2.2-1.4,1.7c0,0,0.1,2.7-1.2,3.2c0,0,0.1,1.5,0.1,1.6l1.3,0.2c0,0-0.2,1.2,0,1.3
	c0,0,1.6,1.1,3.4,1.6c0.8,0.2,1.7,0.5,2.5,0.7C27.9,34.2,23.9,35.9,19.7,35.9z"/>
<g>
</g>
<g>
</g>
<g>
</g>
<g>
</g>
<g>
</g>
<g>
</g>
<g>
</g>
<g>
</g>
<g>
</g>
<g>
</g>
<g>
</g>
<g>
</g>
<g>
</g>
<g>
</g>
<g>
</g>
</svg>
