<?xml version="1.0" encoding="utf-8"?>
<!-- Generator: Adobe Illustrator 18.0.0, SVG Export Plug-In . SVG Version: 6.00 Build 0)  -->
<!DOCTYPE svg PUBLIC "-//W3C//DTD SVG 1.1//EN" "http://www.w3.org/Graphics/SVG/1.1/DTD/svg11.dtd">
<svg version="1.1" id="Layer_1" xmlns="http://www.w3.org/2000/svg" xmlns:xlink="http://www.w3.org/1999/xlink" x="0px" y="0px"
	 viewBox="0 0 40 40" style="enable-background:new 0 0 40 40;" xml:space="preserve">
<style type="text/css">
	.st0{fill:#919191;}
	.st1{fill:none;}
	.st2{fill:#999999;}
</style>
<g>
	<path class="st0" d="M20.2,5.5l3.5,11l0.2,0.7l0.7,0l11.6-0.1l-9.4,6.7l-0.6,0.4l0.2,0.7L30,36l-9.3-6.9l-0.6-0.4l-0.6,0.4L10.3,36
		l3.7-11l0.2-0.7l-0.6-0.4l-9.4-6.7l11.6,0.1l0.7,0l0.2-0.7L20.2,5.5 M20.2,2.2l-4.4,14L1,16.1l12,8.6l-4.7,14l11.8-8.7L32,38.7
		l-4.7-14l12-8.6l-14.7,0.1L20.2,2.2L20.2,2.2z"/>
</g>
<path class="st1" d="M110.4,3.1c-9.2,0-16.7,7.5-16.7,16.7s7.5,16.7,16.7,16.7s16.7-7.5,16.7-16.7S119.6,3.1,110.4,3.1z M111.4,21.6
	h-10.1v-0.7h9.4V8h0.7V21.6z"/>
<path class="st0" d="M110.4,2.4c-9.6,0-17.4,7.8-17.4,17.4c0,9.6,7.8,17.4,17.4,17.4s17.4-7.8,17.4-17.4
	C127.8,10.2,120,2.4,110.4,2.4z M110.4,36.6c-9.2,0-16.7-7.5-16.7-16.7s7.5-16.7,16.7-16.7s16.7,7.5,16.7,16.7
	S119.6,36.6,110.4,36.6z"/>
<polygon class="st0" points="110.7,20.9 101.3,20.9 101.3,21.6 111.4,21.6 111.4,8 110.7,8 "/>
<circle class="st1" cx="275.6" cy="20.2" r="3.1"/>
<circle class="st1" cx="287.7" cy="20.2" r="3.1"/>
<circle class="st1" cx="287.7" cy="32" r="3.1"/>
<circle class="st1" cx="299.5" cy="8.2" r="3.1"/>
<circle class="st1" cx="275.6" cy="32" r="3.1"/>
<circle class="st1" cx="275.6" cy="8.2" r="3.1"/>
<circle class="st1" cx="299.5" cy="32" r="3.1"/>
<circle class="st1" cx="299.5" cy="20.2" r="3.1"/>
<circle class="st1" cx="287.7" cy="8.2" r="3.1"/>
<path class="st0" d="M275.6,3.7c-2.5,0-4.5,2-4.5,4.5c0,2.5,2,4.5,4.5,4.5c2.5,0,4.5-2,4.5-4.5C280.2,5.7,278.1,3.7,275.6,3.7z
	 M275.6,11.3c-1.7,0-3.1-1.4-3.1-3.1c0-1.7,1.4-3.1,3.1-3.1c1.7,0,3.1,1.4,3.1,3.1C278.8,9.9,277.4,11.3,275.6,11.3z"/>
<path class="st0" d="M287.7,3.7c-2.5,0-4.5,2-4.5,4.5c0,2.5,2,4.5,4.5,4.5c2.5,0,4.5-2,4.5-4.5C292.2,5.7,290.2,3.7,287.7,3.7z
	 M287.7,11.3c-1.7,0-3.1-1.4-3.1-3.1c0-1.7,1.4-3.1,3.1-3.1s3.1,1.4,3.1,3.1C290.8,9.9,289.4,11.3,287.7,11.3z"/>
<path class="st0" d="M299.5,12.7c2.5,0,4.5-2,4.5-4.5c0-2.5-2-4.5-4.5-4.5c-2.5,0-4.5,2-4.5,4.5C295,10.7,297,12.7,299.5,12.7z
	 M299.5,5.1c1.7,0,3.1,1.4,3.1,3.1c0,1.7-1.4,3.1-3.1,3.1s-3.1-1.4-3.1-3.1C296.4,6.5,297.8,5.1,299.5,5.1z"/>
<path class="st0" d="M275.6,15.7c-2.5,0-4.5,2-4.5,4.5c0,2.5,2,4.5,4.5,4.5c2.5,0,4.5-2,4.5-4.5C280.2,17.7,278.1,15.7,275.6,15.7z
	 M275.6,23.3c-1.7,0-3.1-1.4-3.1-3.1c0-1.7,1.4-3.1,3.1-3.1c1.7,0,3.1,1.4,3.1,3.1C278.8,21.9,277.4,23.3,275.6,23.3z"/>
<path class="st0" d="M287.7,15.7c-2.5,0-4.5,2-4.5,4.5c0,2.5,2,4.5,4.5,4.5c2.5,0,4.5-2,4.5-4.5C292.2,17.7,290.2,15.7,287.7,15.7z
	 M287.7,23.3c-1.7,0-3.1-1.4-3.1-3.1c0-1.7,1.4-3.1,3.1-3.1s3.1,1.4,3.1,3.1C290.8,21.9,289.4,23.3,287.7,23.3z"/>
<path class="st0" d="M299.5,15.7c-2.5,0-4.5,2-4.5,4.5c0,2.5,2,4.5,4.5,4.5c2.5,0,4.5-2,4.5-4.5C304,17.7,302,15.7,299.5,15.7z
	 M299.5,23.3c-1.7,0-3.1-1.4-3.1-3.1c0-1.7,1.4-3.1,3.1-3.1s3.1,1.4,3.1,3.1C302.6,21.9,301.2,23.3,299.5,23.3z"/>
<path class="st0" d="M275.6,27.5c-2.5,0-4.5,2-4.5,4.5c0,2.5,2,4.5,4.5,4.5c2.5,0,4.5-2,4.5-4.5C280.2,29.6,278.1,27.5,275.6,27.5z
	 M275.6,35.2c-1.7,0-3.1-1.4-3.1-3.1c0-1.7,1.4-3.1,3.1-3.1c1.7,0,3.1,1.4,3.1,3.1C278.8,33.8,277.4,35.2,275.6,35.2z"/>
<path class="st0" d="M287.7,27.5c-2.5,0-4.5,2-4.5,4.5c0,2.5,2,4.5,4.5,4.5c2.5,0,4.5-2,4.5-4.5C292.2,29.6,290.2,27.5,287.7,27.5z
	 M287.7,35.2c-1.7,0-3.1-1.4-3.1-3.1c0-1.7,1.4-3.1,3.1-3.1s3.1,1.4,3.1,3.1C290.8,33.8,289.4,35.2,287.7,35.2z"/>
<path class="st0" d="M299.5,27.5c-2.5,0-4.5,2-4.5,4.5c0,2.5,2,4.5,4.5,4.5c2.5,0,4.5-2,4.5-4.5C304,29.6,302,27.5,299.5,27.5z
	 M299.5,35.2c-1.7,0-3.1-1.4-3.1-3.1c0-1.7,1.4-3.1,3.1-3.1s3.1,1.4,3.1,3.1C302.6,33.8,301.2,35.2,299.5,35.2z"/>
<path class="st1" d="M211.1,12.2c-4.6,0-8.4,3.7-8.4,8.4c0,4.6,3.8,8.4,8.4,8.4c4.6,0,8.4-3.7,8.4-8.4
	C219.5,15.9,215.7,12.2,211.1,12.2z"/>
<path class="st1" d="M374.4,20.6c0-4.6-3.8-8.4-8.4-8.4c-4.6,0-8.4,3.7-8.4,8.4c0,4.6,3.8,8.4,8.4,8.4
	C370.6,28.9,374.4,25.2,374.4,20.6z"/>
<path class="st0" d="M389,10.8c-5.4,0-9.8,4.4-9.8,9.8c0,3.5,1.9,6.7,4.8,8.4h-13c2.8-1.7,4.8-4.8,4.8-8.4c0-5.4-4.4-9.8-9.8-9.8
	c-5.4,0-9.8,4.4-9.8,9.8c0,5.1,4,9.4,9.1,9.7v0h25.1v-0.1c4.7-0.7,8.4-4.7,8.4-9.6C398.8,15.2,394.4,10.8,389,10.8z M357.7,20.6
	c0-4.6,3.8-8.4,8.4-8.4c4.6,0,8.4,3.7,8.4,8.4c0,4.6-3.8,8.4-8.4,8.4C361.4,28.9,357.7,25.2,357.7,20.6z M389,28.9
	c-4.6,0-8.4-3.7-8.4-8.4c0-4.6,3.8-8.4,8.4-8.4c4.6,0,8.4,3.7,8.4,8.4C397.4,25.2,393.6,28.9,389,28.9z"/>
<path class="st1" d="M204.7,29.1c-0.2-0.1,0-1.3,0-1.3l-1.3-0.2c0-0.1-0.1-1.6-0.1-1.6c1.4-0.5,1.2-3.2,1.2-3.2
	c0.9,0.5,1.4-1.7,1.4-1.7c1-3-0.5-2.8-0.5-2.8c0.5-2.2,0-5.5,0-5.5c-0.7-6.1-11.3-4.2-9.7-2.2c-3.8-1.1-2.5,6.1-2.5,6.1l0.7,1.8
	c-1.3,0.8-0.4,1.8-0.3,3c0.1,1.7,1.1,1.4,1.1,1.4c0.1,2.8,1.5,3.2,1.5,3.2c0.3,1.8,0,1.6,0,1.6H195c0.1,0.5-0.1,1.2-0.1,1.2
	c-1.5,0.7-1.8,1-3.2,1.7c-0.9,0.4-1.9,0.8-2.8,1.2c2.8,2.5,6.6,4.1,10.7,4.1c4.3,0,8.2-1.7,11.1-4.5c-0.8-0.3-1.7-0.5-2.5-0.7
	C206.2,30.2,204.7,29.1,204.7,29.1z"/>
<path class="st2" d="M201.6,2.6c-0.2,0-0.5-0.1-0.7-0.1c-2.8-0.4-5.3,0-7.4,1.1c-6.7,2.4-11.4,8.8-11.4,16.4c0,3.5,1,6.8,2.8,9.5
	c0.7,1.4,1.5,2.5,2.4,2.9c3.1,3.1,7.4,5,12.2,5c9.6,0,17.4-7.8,17.4-17.4C217,10.9,210.3,3.6,201.6,2.6z M199.5,35.9
	c-4.1,0-7.8-1.5-10.7-4.1c0.9-0.4,1.9-0.8,2.8-1.2c1.5-0.6,1.8-1,3.2-1.7c0,0,0.2-0.8,0.1-1.2h1.1c0,0,0.3,0.2,0-1.6
	c0,0-1.4-0.4-1.5-3.2c0,0-1.1,0.4-1.1-1.4c0-1.2-0.9-2.2,0.3-3l-0.7-1.8c0,0-1.3-7.2,2.5-6.1c-1.6-1.9,9-3.8,9.7,2.2
	c0,0,0.5,3.3,0,5.5c0,0,1.5-0.2,0.5,2.8c0,0-0.6,2.2-1.4,1.7c0,0,0.1,2.7-1.2,3.2c0,0,0.1,1.5,0.1,1.6l1.3,0.2c0,0-0.2,1.2,0,1.3
	c0,0,1.6,1.1,3.4,1.6c0.8,0.2,1.7,0.5,2.5,0.7C207.7,34.2,203.8,35.9,199.5,35.9z"/>
<g>
</g>
<g>
</g>
<g>
</g>
<g>
</g>
<g>
</g>
<g>
</g>
<g>
</g>
<g>
</g>
<g>
</g>
<g>
</g>
<g>
</g>
<g>
</g>
<g>
</g>
<g>
</g>
<g>
</g>
</svg>
