<?xml version="1.0" encoding="utf-8"?>
<!-- Generator: Adobe Illustrator 18.0.0, SVG Export Plug-In . SVG Version: 6.00 Build 0)  -->
<!DOCTYPE svg PUBLIC "-//W3C//DTD SVG 1.1//EN" "http://www.w3.org/Graphics/SVG/1.1/DTD/svg11.dtd">
<svg version="1.1" id="Layer_1" xmlns="http://www.w3.org/2000/svg" xmlns:xlink="http://www.w3.org/1999/xlink" x="0px" y="0px"
	 viewBox="0 0 40 40" style="enable-background:new 0 0 40 40;" xml:space="preserve">
<style type="text/css">
	.st0{fill:#919191;}
	.st1{fill:none;}
	.st2{fill:#999999;}
</style>
<g>
	<path class="st0" d="M-70.4,5.5l3.5,11l0.2,0.7l0.7,0l11.6-0.1l-9.4,6.7l-0.6,0.4l0.2,0.7l3.7,11l-9.3-6.9l-0.6-0.4l-0.6,0.4
		l-9.3,6.9l3.7-11l0.2-0.7l-0.6-0.4l-9.4-6.7l11.6,0.1l0.7,0l0.2-0.7L-70.4,5.5 M-70.4,2.2l-4.4,14l-14.7-0.1l12,8.6l-4.7,14
		l11.8-8.7l11.8,8.7l-4.7-14l12-8.6l-14.7,0.1L-70.4,2.2L-70.4,2.2z"/>
</g>
<path class="st1" d="M19.9,3.1c-9.2,0-16.7,7.5-16.7,16.7s7.5,16.7,16.7,16.7s16.7-7.5,16.7-16.7S29.1,3.1,19.9,3.1z M20.9,21.6
	H10.8v-0.7h9.4V8h0.7V21.6z"/>
<path class="st0" d="M19.9,2.4c-9.6,0-17.4,7.8-17.4,17.4c0,9.6,7.8,17.4,17.4,17.4s17.4-7.8,17.4-17.4C37.3,10.2,29.5,2.4,19.9,2.4
	z M19.9,36.6c-9.2,0-16.7-7.5-16.7-16.7S10.6,3.1,19.9,3.1s16.7,7.5,16.7,16.7S29.1,36.6,19.9,36.6z"/>
<polygon class="st0" points="20.2,20.9 10.8,20.9 10.8,21.6 20.9,21.6 20.9,8 20.2,8 "/>
<circle class="st1" cx="185.1" cy="20.2" r="3.1"/>
<circle class="st1" cx="197.1" cy="20.2" r="3.1"/>
<circle class="st1" cx="197.1" cy="32" r="3.1"/>
<circle class="st1" cx="209" cy="8.2" r="3.1"/>
<circle class="st1" cx="185.1" cy="32" r="3.1"/>
<circle class="st1" cx="185.1" cy="8.2" r="3.1"/>
<circle class="st1" cx="209" cy="32" r="3.1"/>
<circle class="st1" cx="209" cy="20.2" r="3.1"/>
<circle class="st1" cx="197.1" cy="8.2" r="3.1"/>
<path class="st0" d="M185.1,3.7c-2.5,0-4.5,2-4.5,4.5c0,2.5,2,4.5,4.5,4.5s4.5-2,4.5-4.5C189.7,5.7,187.6,3.7,185.1,3.7z
	 M185.1,11.3c-1.7,0-3.1-1.4-3.1-3.1c0-1.7,1.4-3.1,3.1-3.1c1.7,0,3.1,1.4,3.1,3.1C188.3,9.9,186.9,11.3,185.1,11.3z"/>
<path class="st0" d="M197.1,3.7c-2.5,0-4.5,2-4.5,4.5c0,2.5,2,4.5,4.5,4.5s4.5-2,4.5-4.5C201.7,5.7,199.6,3.7,197.1,3.7z
	 M197.1,11.3c-1.7,0-3.1-1.4-3.1-3.1c0-1.7,1.4-3.1,3.1-3.1s3.1,1.4,3.1,3.1C200.3,9.9,198.9,11.3,197.1,11.3z"/>
<path class="st0" d="M209,12.7c2.5,0,4.5-2,4.5-4.5c0-2.5-2-4.5-4.5-4.5s-4.5,2-4.5,4.5C204.5,10.7,206.5,12.7,209,12.7z M209,5.1
	c1.7,0,3.1,1.4,3.1,3.1c0,1.7-1.4,3.1-3.1,3.1s-3.1-1.4-3.1-3.1C205.9,6.5,207.3,5.1,209,5.1z"/>
<path class="st0" d="M185.1,15.7c-2.5,0-4.5,2-4.5,4.5c0,2.5,2,4.5,4.5,4.5s4.5-2,4.5-4.5C189.7,17.7,187.6,15.7,185.1,15.7z
	 M185.1,23.3c-1.7,0-3.1-1.4-3.1-3.1c0-1.7,1.4-3.1,3.1-3.1c1.7,0,3.1,1.4,3.1,3.1C188.3,21.9,186.9,23.3,185.1,23.3z"/>
<path class="st0" d="M197.1,15.7c-2.5,0-4.5,2-4.5,4.5c0,2.5,2,4.5,4.5,4.5s4.5-2,4.5-4.5C201.7,17.7,199.6,15.7,197.1,15.7z
	 M197.1,23.3c-1.7,0-3.1-1.4-3.1-3.1c0-1.7,1.4-3.1,3.1-3.1s3.1,1.4,3.1,3.1C200.3,21.9,198.9,23.3,197.1,23.3z"/>
<path class="st0" d="M209,15.7c-2.5,0-4.5,2-4.5,4.5c0,2.5,2,4.5,4.5,4.5s4.5-2,4.5-4.5C213.5,17.7,211.5,15.7,209,15.7z M209,23.3
	c-1.7,0-3.1-1.4-3.1-3.1c0-1.7,1.4-3.1,3.1-3.1s3.1,1.4,3.1,3.1C212.1,21.9,210.7,23.3,209,23.3z"/>
<path class="st0" d="M185.1,27.5c-2.5,0-4.5,2-4.5,4.5c0,2.5,2,4.5,4.5,4.5s4.5-2,4.5-4.5C189.7,29.6,187.6,27.5,185.1,27.5z
	 M185.1,35.2c-1.7,0-3.1-1.4-3.1-3.1c0-1.7,1.4-3.1,3.1-3.1c1.7,0,3.1,1.4,3.1,3.1C188.3,33.8,186.9,35.2,185.1,35.2z"/>
<path class="st0" d="M197.1,27.5c-2.5,0-4.5,2-4.5,4.5c0,2.5,2,4.5,4.5,4.5s4.5-2,4.5-4.5C201.7,29.6,199.6,27.5,197.1,27.5z
	 M197.1,35.2c-1.7,0-3.1-1.4-3.1-3.1c0-1.7,1.4-3.1,3.1-3.1s3.1,1.4,3.1,3.1C200.3,33.8,198.9,35.2,197.1,35.2z"/>
<path class="st0" d="M209,27.5c-2.5,0-4.5,2-4.5,4.5c0,2.5,2,4.5,4.5,4.5s4.5-2,4.5-4.5C213.5,29.6,211.5,27.5,209,27.5z M209,35.2
	c-1.7,0-3.1-1.4-3.1-3.1c0-1.7,1.4-3.1,3.1-3.1s3.1,1.4,3.1,3.1C212.1,33.8,210.7,35.2,209,35.2z"/>
<path class="st1" d="M120.6,12.2c-4.6,0-8.4,3.7-8.4,8.4c0,4.6,3.8,8.4,8.4,8.4s8.4-3.7,8.4-8.4C128.9,15.9,125.2,12.2,120.6,12.2z"
	/>
<path class="st1" d="M283.9,20.6c0-4.6-3.8-8.4-8.4-8.4s-8.4,3.7-8.4,8.4c0,4.6,3.8,8.4,8.4,8.4S283.9,25.2,283.9,20.6z"/>
<path class="st0" d="M298.5,10.8c-5.4,0-9.8,4.4-9.8,9.8c0,3.5,1.9,6.7,4.8,8.4h-13c2.8-1.7,4.8-4.8,4.8-8.4c0-5.4-4.4-9.8-9.8-9.8
	c-5.4,0-9.8,4.4-9.8,9.8c0,5.1,4,9.4,9.1,9.7v0h25.1v-0.1c4.7-0.7,8.4-4.7,8.4-9.6C308.3,15.2,303.9,10.8,298.5,10.8z M267.2,20.6
	c0-4.6,3.8-8.4,8.4-8.4s8.4,3.7,8.4,8.4c0,4.6-3.8,8.4-8.4,8.4S267.2,25.2,267.2,20.6z M298.5,28.9c-4.6,0-8.4-3.7-8.4-8.4
	c0-4.6,3.8-8.4,8.4-8.4s8.4,3.7,8.4,8.4C306.9,25.2,303.1,28.9,298.5,28.9z"/>
<path class="st1" d="M114.2,29.1c-0.2-0.1,0-1.3,0-1.3l-1.3-0.2c0-0.1-0.1-1.6-0.1-1.6c1.4-0.5,1.2-3.2,1.2-3.2
	c0.9,0.5,1.4-1.7,1.4-1.7c1-3-0.5-2.8-0.5-2.8c0.5-2.2,0-5.5,0-5.5c-0.7-6.1-11.3-4.2-9.7-2.2c-3.8-1.1-2.5,6.1-2.5,6.1l0.7,1.8
	c-1.3,0.8-0.4,1.8-0.3,3c0.1,1.7,1.1,1.4,1.1,1.4c0.1,2.8,1.5,3.2,1.5,3.2c0.3,1.8,0,1.6,0,1.6h-1.1c0.1,0.5-0.1,1.2-0.1,1.2
	c-1.5,0.7-1.8,1-3.2,1.7c-0.9,0.4-1.9,0.8-2.8,1.2c2.8,2.5,6.6,4.1,10.7,4.1c4.3,0,8.2-1.7,11.1-4.5c-0.8-0.3-1.7-0.5-2.5-0.7
	C115.7,30.2,114.2,29.1,114.2,29.1z"/>
<path class="st2" d="M111.1,2.6c-0.2,0-0.5-0.1-0.7-0.1c-2.8-0.4-5.3,0-7.4,1.1c-6.7,2.4-11.4,8.8-11.4,16.4c0,3.5,1,6.8,2.8,9.5
	c0.7,1.4,1.5,2.5,2.4,2.9c3.1,3.1,7.4,5,12.2,5c9.6,0,17.4-7.8,17.4-17.4C126.4,10.9,119.7,3.6,111.1,2.6z M109,35.9
	c-4.1,0-7.8-1.5-10.7-4.1c0.9-0.4,1.9-0.8,2.8-1.2c1.5-0.6,1.8-1,3.2-1.7c0,0,0.2-0.8,0.1-1.2h1.1c0,0,0.3,0.2,0-1.6
	c0,0-1.4-0.4-1.5-3.2c0,0-1.1,0.4-1.1-1.4c0-1.2-0.9-2.2,0.3-3l-0.7-1.8c0,0-1.3-7.2,2.5-6.1c-1.6-1.9,9-3.8,9.7,2.2
	c0,0,0.5,3.3,0,5.5c0,0,1.5-0.2,0.5,2.8c0,0-0.6,2.2-1.4,1.7c0,0,0.1,2.7-1.2,3.2c0,0,0.1,1.5,0.1,1.6l1.3,0.2c0,0-0.2,1.2,0,1.3
	c0,0,1.6,1.1,3.4,1.6c0.8,0.2,1.7,0.5,2.5,0.7C117.2,34.2,113.3,35.9,109,35.9z"/>
<g>
</g>
<g>
</g>
<g>
</g>
<g>
</g>
<g>
</g>
<g>
</g>
<g>
</g>
<g>
</g>
<g>
</g>
<g>
</g>
<g>
</g>
<g>
</g>
<g>
</g>
<g>
</g>
<g>
</g>
</svg>
