<?xml version="1.0" encoding="utf-8"?>
<!-- Generator: Adobe Illustrator 18.0.0, SVG Export Plug-In . SVG Version: 6.00 Build 0)  -->
<!DOCTYPE svg PUBLIC "-//W3C//DTD SVG 1.1//EN" "http://www.w3.org/Graphics/SVG/1.1/DTD/svg11.dtd">
<svg version="1.1" id="Layer_1" xmlns="http://www.w3.org/2000/svg" xmlns:xlink="http://www.w3.org/1999/xlink" x="0px" y="0px"
	 viewBox="0 0 40 40" style="enable-background:new 0 0 40 40;" xml:space="preserve">
<style type="text/css">
	.st0{fill:#919191;}
	.st1{fill:none;}
	.st2{fill:#999999;}
</style>
<g>
	<path class="st0" d="M-247.2,5.5l3.5,11l0.2,0.7l0.7,0l11.6-0.1l-9.4,6.7l-0.6,0.4l0.2,0.7l3.7,11l-9.3-6.9l-0.6-0.4l-0.6,0.4
		l-9.3,6.9l3.7-11l0.2-0.7l-0.6-0.4l-9.4-6.7l11.6,0.1l0.7,0l0.2-0.7L-247.2,5.5 M-247.2,2.2l-4.4,14l-14.7-0.1l12,8.6l-4.7,14
		l11.8-8.7l11.8,8.7l-4.7-14l12-8.6l-14.7,0.1L-247.2,2.2L-247.2,2.2z"/>
</g>
<path class="st1" d="M-157,3.1c-9.2,0-16.7,7.5-16.7,16.7s7.5,16.7,16.7,16.7s16.7-7.5,16.7-16.7S-147.8,3.1-157,3.1z M-155.9,21.6
	H-166v-0.7h9.4V8h0.7V21.6z"/>
<path class="st0" d="M-157,2.4c-9.6,0-17.4,7.8-17.4,17.4c0,9.6,7.8,17.4,17.4,17.4s17.4-7.8,17.4-17.4
	C-139.6,10.2-147.4,2.4-157,2.4z M-157,36.6c-9.2,0-16.7-7.5-16.7-16.7s7.5-16.7,16.7-16.7s16.7,7.5,16.7,16.7S-147.8,36.6-157,36.6
	z"/>
<polygon class="st0" points="-156.6,20.9 -166,20.9 -166,21.6 -155.9,21.6 -155.9,8 -156.6,8 "/>
<circle class="st1" cx="8.3" cy="20.2" r="3.1"/>
<circle class="st1" cx="20.3" cy="20.2" r="3.1"/>
<circle class="st1" cx="20.3" cy="32" r="3.1"/>
<circle class="st1" cx="32.1" cy="8.2" r="3.1"/>
<circle class="st1" cx="8.3" cy="32" r="3.1"/>
<circle class="st1" cx="8.3" cy="8.2" r="3.1"/>
<circle class="st1" cx="32.1" cy="32" r="3.1"/>
<circle class="st1" cx="32.1" cy="20.2" r="3.1"/>
<circle class="st1" cx="20.3" cy="8.2" r="3.1"/>
<path class="st0" d="M8.3,3.7c-2.5,0-4.5,2-4.5,4.5c0,2.5,2,4.5,4.5,4.5s4.5-2,4.5-4.5C12.8,5.7,10.8,3.7,8.3,3.7z M8.3,11.3
	c-1.7,0-3.1-1.4-3.1-3.1c0-1.7,1.4-3.1,3.1-3.1s3.1,1.4,3.1,3.1C11.4,9.9,10,11.3,8.3,11.3z"/>
<path class="st0" d="M20.3,3.7c-2.5,0-4.5,2-4.5,4.5c0,2.5,2,4.5,4.5,4.5s4.5-2,4.5-4.5C24.8,5.7,22.8,3.7,20.3,3.7z M20.3,11.3
	c-1.7,0-3.1-1.4-3.1-3.1c0-1.7,1.4-3.1,3.1-3.1c1.7,0,3.1,1.4,3.1,3.1C23.4,9.9,22,11.3,20.3,11.3z"/>
<path class="st0" d="M32.1,12.7c2.5,0,4.5-2,4.5-4.5c0-2.5-2-4.5-4.5-4.5s-4.5,2-4.5,4.5C27.6,10.7,29.6,12.7,32.1,12.7z M32.1,5.1
	c1.7,0,3.1,1.4,3.1,3.1c0,1.7-1.4,3.1-3.1,3.1c-1.7,0-3.1-1.4-3.1-3.1C29,6.5,30.4,5.1,32.1,5.1z"/>
<path class="st0" d="M8.3,15.7c-2.5,0-4.5,2-4.5,4.5c0,2.5,2,4.5,4.5,4.5s4.5-2,4.5-4.5C12.8,17.7,10.8,15.7,8.3,15.7z M8.3,23.3
	c-1.7,0-3.1-1.4-3.1-3.1c0-1.7,1.4-3.1,3.1-3.1s3.1,1.4,3.1,3.1C11.4,21.9,10,23.3,8.3,23.3z"/>
<path class="st0" d="M20.3,15.7c-2.5,0-4.5,2-4.5,4.5c0,2.5,2,4.5,4.5,4.5s4.5-2,4.5-4.5C24.8,17.7,22.8,15.7,20.3,15.7z M20.3,23.3
	c-1.7,0-3.1-1.4-3.1-3.1c0-1.7,1.4-3.1,3.1-3.1c1.7,0,3.1,1.4,3.1,3.1C23.4,21.9,22,23.3,20.3,23.3z"/>
<path class="st0" d="M32.1,15.7c-2.5,0-4.5,2-4.5,4.5c0,2.5,2,4.5,4.5,4.5s4.5-2,4.5-4.5C36.7,17.7,34.6,15.7,32.1,15.7z M32.1,23.3
	c-1.7,0-3.1-1.4-3.1-3.1c0-1.7,1.4-3.1,3.1-3.1c1.7,0,3.1,1.4,3.1,3.1C35.3,21.9,33.9,23.3,32.1,23.3z"/>
<path class="st0" d="M8.3,27.5c-2.5,0-4.5,2-4.5,4.5c0,2.5,2,4.5,4.5,4.5s4.5-2,4.5-4.5C12.8,29.6,10.8,27.5,8.3,27.5z M8.3,35.2
	c-1.7,0-3.1-1.4-3.1-3.1c0-1.7,1.4-3.1,3.1-3.1s3.1,1.4,3.1,3.1C11.4,33.8,10,35.2,8.3,35.2z"/>
<path class="st0" d="M20.3,27.5c-2.5,0-4.5,2-4.5,4.5c0,2.5,2,4.5,4.5,4.5s4.5-2,4.5-4.5C24.8,29.6,22.8,27.5,20.3,27.5z M20.3,35.2
	c-1.7,0-3.1-1.4-3.1-3.1c0-1.7,1.4-3.1,3.1-3.1c1.7,0,3.1,1.4,3.1,3.1C23.4,33.8,22,35.2,20.3,35.2z"/>
<path class="st0" d="M32.1,27.5c-2.5,0-4.5,2-4.5,4.5c0,2.5,2,4.5,4.5,4.5s4.5-2,4.5-4.5C36.7,29.6,34.6,27.5,32.1,27.5z M32.1,35.2
	c-1.7,0-3.1-1.4-3.1-3.1c0-1.7,1.4-3.1,3.1-3.1c1.7,0,3.1,1.4,3.1,3.1C35.3,33.8,33.9,35.2,32.1,35.2z"/>
<path class="st1" d="M-56.3,12.2c-4.6,0-8.4,3.7-8.4,8.4c0,4.6,3.8,8.4,8.4,8.4s8.4-3.7,8.4-8.4C-47.9,15.9-51.6,12.2-56.3,12.2z"/>
<path class="st1" d="M107,20.6c0-4.6-3.8-8.4-8.4-8.4s-8.4,3.7-8.4,8.4c0,4.6,3.8,8.4,8.4,8.4S107,25.2,107,20.6z"/>
<path class="st0" d="M121.7,10.8c-5.4,0-9.8,4.4-9.8,9.8c0,3.5,1.9,6.7,4.8,8.4h-13c2.8-1.7,4.8-4.8,4.8-8.4c0-5.4-4.4-9.8-9.8-9.8
	s-9.8,4.4-9.8,9.8c0,5.1,4,9.4,9.1,9.7v0h25.1v-0.1c4.7-0.7,8.4-4.7,8.4-9.6C131.4,15.2,127,10.8,121.7,10.8z M90.3,20.6
	c0-4.6,3.8-8.4,8.4-8.4s8.4,3.7,8.4,8.4c0,4.6-3.8,8.4-8.4,8.4S90.3,25.2,90.3,20.6z M121.7,28.9c-4.6,0-8.4-3.7-8.4-8.4
	c0-4.6,3.8-8.4,8.4-8.4s8.4,3.7,8.4,8.4C130,25.2,126.3,28.9,121.7,28.9z"/>
<path class="st1" d="M-62.7,29.1c-0.2-0.1,0-1.3,0-1.3l-1.3-0.2c0-0.1-0.1-1.6-0.1-1.6c1.4-0.5,1.2-3.2,1.2-3.2
	c0.9,0.5,1.4-1.7,1.4-1.7c1-3-0.5-2.8-0.5-2.8c0.5-2.2,0-5.5,0-5.5c-0.7-6.1-11.3-4.2-9.7-2.2c-3.8-1.1-2.5,6.1-2.5,6.1l0.7,1.8
	c-1.3,0.8-0.4,1.8-0.3,3c0.1,1.7,1.1,1.4,1.1,1.4c0.1,2.8,1.5,3.2,1.5,3.2c0.3,1.8,0,1.6,0,1.6h-1.1c0.1,0.5-0.1,1.2-0.1,1.2
	c-1.5,0.7-1.8,1-3.2,1.7c-0.9,0.4-1.9,0.8-2.8,1.2c2.8,2.5,6.6,4.1,10.7,4.1c4.3,0,8.2-1.7,11.1-4.5c-0.8-0.3-1.7-0.5-2.5-0.7
	C-61.1,30.2-62.7,29.1-62.7,29.1z"/>
<path class="st2" d="M-65.7,2.6c-0.2,0-0.5-0.1-0.7-0.1c-2.8-0.4-5.3,0-7.4,1.1c-6.7,2.4-11.4,8.8-11.4,16.4c0,3.5,1,6.8,2.8,9.5
	c0.7,1.4,1.5,2.5,2.4,2.9c3.1,3.1,7.4,5,12.2,5c9.6,0,17.4-7.8,17.4-17.4C-50.4,10.9-57.1,3.6-65.7,2.6z M-67.8,35.9
	c-4.1,0-7.8-1.5-10.7-4.1c0.9-0.4,1.9-0.8,2.8-1.2c1.5-0.6,1.8-1,3.2-1.7c0,0,0.2-0.8,0.1-1.2h1.1c0,0,0.3,0.2,0-1.6
	c0,0-1.4-0.4-1.5-3.2c0,0-1.1,0.4-1.1-1.4c0-1.2-0.9-2.2,0.3-3l-0.7-1.8c0,0-1.3-7.2,2.5-6.1c-1.6-1.9,9-3.8,9.7,2.2
	c0,0,0.5,3.3,0,5.5c0,0,1.5-0.2,0.5,2.8c0,0-0.6,2.2-1.4,1.7c0,0,0.1,2.7-1.2,3.2c0,0,0.1,1.5,0.1,1.6l1.3,0.2c0,0-0.2,1.2,0,1.3
	c0,0,1.6,1.1,3.4,1.6c0.8,0.2,1.7,0.5,2.5,0.7C-59.6,34.2-63.5,35.9-67.8,35.9z"/>
<g>
</g>
<g>
</g>
<g>
</g>
<g>
</g>
<g>
</g>
<g>
</g>
<g>
</g>
<g>
</g>
<g>
</g>
<g>
</g>
<g>
</g>
<g>
</g>
<g>
</g>
<g>
</g>
<g>
</g>
</svg>
