<?xml version="1.0" encoding="utf-8"?>
<!-- Generator: Adobe Illustrator 18.0.0, SVG Export Plug-In . SVG Version: 6.00 Build 0)  -->
<!DOCTYPE svg PUBLIC "-//W3C//DTD SVG 1.1//EN" "http://www.w3.org/Graphics/SVG/1.1/DTD/svg11.dtd">
<svg version="1.1" id="Layer_1" xmlns="http://www.w3.org/2000/svg" xmlns:xlink="http://www.w3.org/1999/xlink" x="0px" y="0px"
	 viewBox="0 0 40 40" style="enable-background:new 0 0 40 40;" xml:space="preserve">
<style type="text/css">
	.st0{fill:#919191;}
	.st1{fill:none;}
	.st2{fill:#999999;}
</style>
<g>
	<path class="st0" d="M-336.7,5.5l3.5,11l0.2,0.7l0.7,0l11.6-0.1l-9.4,6.7l-0.6,0.4l0.2,0.7l3.7,11l-9.3-6.9l-0.6-0.4l-0.6,0.4
		l-9.3,6.9l3.7-11l0.2-0.7l-0.6-0.4l-9.4-6.7l11.6,0.1l0.7,0l0.2-0.7L-336.7,5.5 M-336.7,2.2l-4.4,14l-14.7-0.1l12,8.6l-4.7,14
		l11.8-8.7l11.8,8.7l-4.7-14l12-8.6l-14.7,0.1L-336.7,2.2L-336.7,2.2z"/>
</g>
<path class="st1" d="M-246.5,3.1c-9.2,0-16.7,7.5-16.7,16.7s7.5,16.7,16.7,16.7s16.7-7.5,16.7-16.7S-237.3,3.1-246.5,3.1z
	 M-245.5,21.6h-10.1v-0.7h9.4V8h0.7V21.6z"/>
<path class="st0" d="M-246.5,2.4c-9.6,0-17.4,7.8-17.4,17.4c0,9.6,7.8,17.4,17.4,17.4s17.4-7.8,17.4-17.4
	C-229.1,10.2-236.9,2.4-246.5,2.4z M-246.5,36.6c-9.2,0-16.7-7.5-16.7-16.7s7.5-16.7,16.7-16.7s16.7,7.5,16.7,16.7
	S-237.3,36.6-246.5,36.6z"/>
<polygon class="st0" points="-246.2,20.9 -255.6,20.9 -255.6,21.6 -245.5,21.6 -245.5,8 -246.2,8 "/>
<circle class="st1" cx="-81.2" cy="20.2" r="3.1"/>
<circle class="st1" cx="-69.2" cy="20.2" r="3.1"/>
<circle class="st1" cx="-69.2" cy="32" r="3.1"/>
<circle class="st1" cx="-57.4" cy="8.2" r="3.1"/>
<circle class="st1" cx="-81.2" cy="32" r="3.1"/>
<circle class="st1" cx="-81.2" cy="8.2" r="3.1"/>
<circle class="st1" cx="-57.4" cy="32" r="3.1"/>
<circle class="st1" cx="-57.4" cy="20.2" r="3.1"/>
<circle class="st1" cx="-69.2" cy="8.2" r="3.1"/>
<path class="st0" d="M-81.2,3.7c-2.5,0-4.5,2-4.5,4.5c0,2.5,2,4.5,4.5,4.5c2.5,0,4.5-2,4.5-4.5C-76.7,5.7-78.7,3.7-81.2,3.7z
	 M-81.2,11.3c-1.7,0-3.1-1.4-3.1-3.1c0-1.7,1.4-3.1,3.1-3.1c1.7,0,3.1,1.4,3.1,3.1C-78.1,9.9-79.5,11.3-81.2,11.3z"/>
<path class="st0" d="M-69.2,3.7c-2.5,0-4.5,2-4.5,4.5c0,2.5,2,4.5,4.5,4.5c2.5,0,4.5-2,4.5-4.5C-64.7,5.7-66.7,3.7-69.2,3.7z
	 M-69.2,11.3c-1.7,0-3.1-1.4-3.1-3.1c0-1.7,1.4-3.1,3.1-3.1s3.1,1.4,3.1,3.1C-66.1,9.9-67.5,11.3-69.2,11.3z"/>
<path class="st0" d="M-57.4,12.7c2.5,0,4.5-2,4.5-4.5c0-2.5-2-4.5-4.5-4.5s-4.5,2-4.5,4.5C-61.9,10.7-59.9,12.7-57.4,12.7z
	 M-57.4,5.1c1.7,0,3.1,1.4,3.1,3.1c0,1.7-1.4,3.1-3.1,3.1s-3.1-1.4-3.1-3.1C-60.5,6.5-59.1,5.1-57.4,5.1z"/>
<path class="st0" d="M-81.2,15.7c-2.5,0-4.5,2-4.5,4.5c0,2.5,2,4.5,4.5,4.5c2.5,0,4.5-2,4.5-4.5C-76.7,17.7-78.7,15.7-81.2,15.7z
	 M-81.2,23.3c-1.7,0-3.1-1.4-3.1-3.1c0-1.7,1.4-3.1,3.1-3.1c1.7,0,3.1,1.4,3.1,3.1C-78.1,21.9-79.5,23.3-81.2,23.3z"/>
<path class="st0" d="M-69.2,15.7c-2.5,0-4.5,2-4.5,4.5c0,2.5,2,4.5,4.5,4.5c2.5,0,4.5-2,4.5-4.5C-64.7,17.7-66.7,15.7-69.2,15.7z
	 M-69.2,23.3c-1.7,0-3.1-1.4-3.1-3.1c0-1.7,1.4-3.1,3.1-3.1s3.1,1.4,3.1,3.1C-66.1,21.9-67.5,23.3-69.2,23.3z"/>
<path class="st0" d="M-57.4,15.7c-2.5,0-4.5,2-4.5,4.5c0,2.5,2,4.5,4.5,4.5s4.5-2,4.5-4.5C-52.8,17.7-54.9,15.7-57.4,15.7z
	 M-57.4,23.3c-1.7,0-3.1-1.4-3.1-3.1c0-1.7,1.4-3.1,3.1-3.1s3.1,1.4,3.1,3.1C-54.2,21.9-55.6,23.3-57.4,23.3z"/>
<path class="st0" d="M-81.2,27.5c-2.5,0-4.5,2-4.5,4.5c0,2.5,2,4.5,4.5,4.5c2.5,0,4.5-2,4.5-4.5C-76.7,29.6-78.7,27.5-81.2,27.5z
	 M-81.2,35.2c-1.7,0-3.1-1.4-3.1-3.1c0-1.7,1.4-3.1,3.1-3.1c1.7,0,3.1,1.4,3.1,3.1C-78.1,33.8-79.5,35.2-81.2,35.2z"/>
<path class="st0" d="M-69.2,27.5c-2.5,0-4.5,2-4.5,4.5c0,2.5,2,4.5,4.5,4.5c2.5,0,4.5-2,4.5-4.5C-64.7,29.6-66.7,27.5-69.2,27.5z
	 M-69.2,35.2c-1.7,0-3.1-1.4-3.1-3.1c0-1.7,1.4-3.1,3.1-3.1s3.1,1.4,3.1,3.1C-66.1,33.8-67.5,35.2-69.2,35.2z"/>
<path class="st0" d="M-57.4,27.5c-2.5,0-4.5,2-4.5,4.5c0,2.5,2,4.5,4.5,4.5s4.5-2,4.5-4.5C-52.8,29.6-54.9,27.5-57.4,27.5z
	 M-57.4,35.2c-1.7,0-3.1-1.4-3.1-3.1c0-1.7,1.4-3.1,3.1-3.1s3.1,1.4,3.1,3.1C-54.2,33.8-55.6,35.2-57.4,35.2z"/>
<path class="st1" d="M-145.8,12.2c-4.6,0-8.4,3.7-8.4,8.4c0,4.6,3.8,8.4,8.4,8.4c4.6,0,8.4-3.7,8.4-8.4
	C-137.4,15.9-141.2,12.2-145.8,12.2z"/>
<path class="st1" d="M17.5,20.6c0-4.6-3.8-8.4-8.4-8.4s-8.4,3.7-8.4,8.4c0,4.6,3.8,8.4,8.4,8.4S17.5,25.2,17.5,20.6z"/>
<path class="st0" d="M30.3,12.3c-4.5,0-8.2,3.7-8.2,8.2c0,3,1.6,5.6,4,7h-11c2.4-1.4,4-4.1,4-7c0-4.5-3.7-8.2-8.2-8.2
	S2.7,16,2.7,20.6c0,4.3,3.4,7.9,7.6,8.2v0h21.1v-0.1c4-0.6,7-4,7-8.1C38.6,16,34.9,12.3,30.3,12.3z M3.9,20.6c0-3.9,3.2-7,7-7
	s7,3.2,7,7c0,3.9-3.2,7-7,7S3.9,24.4,3.9,20.6z M30.3,27.6c-3.9,0-7-3.2-7-7c0-3.9,3.2-7,7-7s7,3.2,7,7
	C37.4,24.4,34.2,27.6,30.3,27.6z"/>
<path class="st1" d="M-152.2,29.1c-0.2-0.1,0-1.3,0-1.3l-1.3-0.2c0-0.1-0.1-1.6-0.1-1.6c1.4-0.5,1.2-3.2,1.2-3.2
	c0.9,0.5,1.4-1.7,1.4-1.7c1-3-0.5-2.8-0.5-2.8c0.5-2.2,0-5.5,0-5.5c-0.7-6.1-11.3-4.2-9.7-2.2c-3.8-1.1-2.5,6.1-2.5,6.1l0.7,1.8
	c-1.3,0.8-0.4,1.8-0.3,3c0.1,1.7,1.1,1.4,1.1,1.4c0.1,2.8,1.5,3.2,1.5,3.2c0.3,1.8,0,1.6,0,1.6h-1.1c0.1,0.5-0.1,1.2-0.1,1.2
	c-1.5,0.7-1.8,1-3.2,1.7c-0.9,0.4-1.9,0.8-2.8,1.2c2.8,2.5,6.6,4.1,10.7,4.1c4.3,0,8.2-1.7,11.1-4.5c-0.8-0.3-1.7-0.5-2.5-0.7
	C-150.6,30.2-152.2,29.1-152.2,29.1z"/>
<path class="st2" d="M-155.2,2.6c-0.2,0-0.5-0.1-0.7-0.1c-2.8-0.4-5.3,0-7.4,1.1c-6.7,2.4-11.4,8.8-11.4,16.4c0,3.5,1,6.8,2.8,9.5
	c0.7,1.4,1.5,2.5,2.4,2.9c3.1,3.1,7.4,5,12.2,5c9.6,0,17.4-7.8,17.4-17.4C-139.9,10.9-146.6,3.6-155.2,2.6z M-157.3,35.9
	c-4.1,0-7.8-1.5-10.7-4.1c0.9-0.4,1.9-0.8,2.8-1.2c1.5-0.6,1.8-1,3.2-1.7c0,0,0.2-0.8,0.1-1.2h1.1c0,0,0.3,0.2,0-1.6
	c0,0-1.4-0.4-1.5-3.2c0,0-1.1,0.4-1.1-1.4c0-1.2-0.9-2.2,0.3-3l-0.7-1.8c0,0-1.3-7.2,2.5-6.1c-1.6-1.9,9-3.8,9.7,2.2
	c0,0,0.5,3.3,0,5.5c0,0,1.5-0.2,0.5,2.8c0,0-0.6,2.2-1.4,1.7c0,0,0.1,2.7-1.2,3.2c0,0,0.1,1.5,0.1,1.6l1.3,0.2c0,0-0.2,1.2,0,1.3
	c0,0,1.6,1.1,3.4,1.6c0.8,0.2,1.7,0.5,2.5,0.7C-149.1,34.2-153,35.9-157.3,35.9z"/>
<g>
</g>
<g>
</g>
<g>
</g>
<g>
</g>
<g>
</g>
<g>
</g>
<g>
</g>
<g>
</g>
<g>
</g>
<g>
</g>
<g>
</g>
<g>
</g>
<g>
</g>
<g>
</g>
<g>
</g>
</svg>
