<?xml version="1.0" encoding="utf-8"?>
<!-- Generator: Adobe Illustrator 18.0.0, SVG Export Plug-In . SVG Version: 6.00 Build 0)  -->
<!DOCTYPE svg PUBLIC "-//W3C//DTD SVG 1.1//EN" "http://www.w3.org/Graphics/SVG/1.1/DTD/svg11.dtd">
<svg version="1.1" id="Layer_1" xmlns="http://www.w3.org/2000/svg" xmlns:xlink="http://www.w3.org/1999/xlink" x="0px" y="0px"
	 viewBox="0 0 640 45" style="enable-background:new 0 0 640 45;" xml:space="preserve">
<style type="text/css">
	.st0{fill:#1A1A1A;}
	.st1{fill:#FFFFFF;}
	.st2{fill:none;stroke:#FFFFFF;stroke-miterlimit:10;}
	.st3{fill:none;}
</style>
<rect x="-0.5" class="st0" width="640" height="45"/>
<g>
	<path class="st1" d="M100.6,12.9l6.3,16.1h-2.4l-1.8-4.9H96L94.2,29H92l6.3-16.1H100.6z M102.1,22.3l-2.7-7.5h0l-2.7,7.5H102.1z"/>
	<path class="st1" d="M106.8,14.7v-1.8h12.9v1.8h-5.4V29h-2.1V14.7H106.8z"/>
	<path class="st1" d="M119.8,14.7v-1.8h12.9v1.8h-5.4V29h-2.1V14.7H119.8z"/>
</g>
<g>
	<path class="st1" d="M514.1,29V17h-4.3v-1.6c0.6,0,1.1,0,1.7-0.1c0.5-0.1,1-0.2,1.5-0.5c0.4-0.2,0.8-0.6,1.1-1
		c0.3-0.4,0.5-0.9,0.6-1.6h1.5V29H514.1z"/>
	<path class="st1" d="M519.5,18.9c0-0.7,0.1-1.3,0.2-1.9s0.3-1.2,0.5-1.8c0.2-0.6,0.6-1.1,1-1.5c0.4-0.4,0.9-0.8,1.5-1
		c0.6-0.3,1.4-0.4,2.2-0.4c0.9,0,1.6,0.1,2.2,0.4c0.6,0.3,1.1,0.6,1.5,1c0.4,0.4,0.7,0.9,1,1.5c0.2,0.6,0.4,1.2,0.5,1.8
		s0.2,1.3,0.2,1.9c0,0.7,0,1.3,0,1.9c0,0.6,0,1.2,0,1.9c0,0.7-0.1,1.3-0.2,1.9c-0.1,0.6-0.3,1.2-0.5,1.8c-0.2,0.6-0.6,1-1,1.5
		c-0.4,0.4-0.9,0.8-1.5,1c-0.6,0.2-1.4,0.4-2.2,0.4c-0.9,0-1.6-0.1-2.2-0.4c-0.6-0.2-1.1-0.6-1.5-1c-0.4-0.4-0.7-0.9-1-1.5
		c-0.2-0.6-0.4-1.2-0.5-1.8c-0.1-0.6-0.2-1.3-0.2-1.9s0-1.3,0-1.9C519.4,20.2,519.5,19.5,519.5,18.9z M521.6,22.9
		c0,0.8,0.2,1.5,0.4,2.2s0.6,1.3,1,1.7s1.1,0.7,2,0.7c0.8,0,1.5-0.2,2-0.7s0.8-1,1-1.7c0.2-0.7,0.3-1.4,0.4-2.2
		c0-0.8,0.1-1.5,0.1-2.1c0-0.4,0-0.9,0-1.4s0-1-0.1-1.5c-0.1-0.5-0.2-1-0.3-1.5s-0.3-0.9-0.6-1.2c-0.3-0.4-0.6-0.6-1-0.9
		c-0.4-0.2-0.9-0.3-1.4-0.3c-0.6,0-1,0.1-1.4,0.3c-0.4,0.2-0.7,0.5-1,0.9c-0.3,0.4-0.5,0.8-0.6,1.2s-0.2,1-0.3,1.5
		c-0.1,0.5-0.1,1-0.1,1.5s0,0.9,0,1.4C521.6,21.4,521.6,22.1,521.6,22.9z"/>
	<path class="st1" d="M531.7,18.9c0-0.7,0.1-1.3,0.2-1.9s0.3-1.2,0.5-1.8c0.2-0.6,0.6-1.1,1-1.5c0.4-0.4,0.9-0.8,1.5-1
		c0.6-0.3,1.4-0.4,2.2-0.4c0.9,0,1.6,0.1,2.2,0.4c0.6,0.3,1.1,0.6,1.5,1c0.4,0.4,0.7,0.9,1,1.5c0.2,0.6,0.4,1.2,0.5,1.8
		s0.2,1.3,0.2,1.9c0,0.7,0,1.3,0,1.9c0,0.6,0,1.2,0,1.9c0,0.7-0.1,1.3-0.2,1.9c-0.1,0.6-0.3,1.2-0.5,1.8c-0.2,0.6-0.6,1-1,1.5
		c-0.4,0.4-0.9,0.8-1.5,1c-0.6,0.2-1.4,0.4-2.2,0.4c-0.9,0-1.6-0.1-2.2-0.4c-0.6-0.2-1.1-0.6-1.5-1c-0.4-0.4-0.7-0.9-1-1.5
		c-0.2-0.6-0.4-1.2-0.5-1.8c-0.1-0.6-0.2-1.3-0.2-1.9s0-1.3,0-1.9C531.6,20.2,531.6,19.5,531.7,18.9z M533.8,22.9
		c0,0.8,0.2,1.5,0.4,2.2s0.6,1.3,1,1.7s1.1,0.7,2,0.7c0.8,0,1.5-0.2,2-0.7s0.8-1,1-1.7c0.2-0.7,0.3-1.4,0.4-2.2
		c0-0.8,0.1-1.5,0.1-2.1c0-0.4,0-0.9,0-1.4s0-1-0.1-1.5c-0.1-0.5-0.2-1-0.3-1.5s-0.3-0.9-0.6-1.2c-0.3-0.4-0.6-0.6-1-0.9
		c-0.4-0.2-0.9-0.3-1.4-0.3c-0.6,0-1,0.1-1.4,0.3c-0.4,0.2-0.7,0.5-1,0.9c-0.3,0.4-0.5,0.8-0.6,1.2s-0.2,1-0.3,1.5
		c-0.1,0.5-0.1,1-0.1,1.5s0,0.9,0,1.4C533.7,21.4,533.8,22.1,533.8,22.9z"/>
	<path class="st1" d="M545.6,15.2c0.1-0.6,0.3-1.1,0.6-1.5c0.3-0.4,0.7-0.8,1.2-1s1.1-0.4,1.8-0.4c0.7,0,1.3,0.1,1.8,0.4
		c0.5,0.3,0.9,0.6,1.2,1c0.3,0.4,0.5,0.9,0.6,1.5c0.1,0.6,0.2,1.2,0.2,1.8c0,0.6-0.1,1.2-0.2,1.8c-0.1,0.6-0.4,1.1-0.7,1.5
		c-0.3,0.4-0.7,0.8-1.2,1s-1.1,0.4-1.7,0.4c-0.7,0-1.3-0.1-1.8-0.4c-0.5-0.2-0.9-0.6-1.2-1c-0.3-0.4-0.5-0.9-0.6-1.5
		c-0.1-0.6-0.2-1.2-0.2-1.8C545.4,16.4,545.5,15.8,545.6,15.2z M547.3,18.1c0,0.4,0.1,0.8,0.3,1.1c0.1,0.3,0.3,0.6,0.6,0.8
		c0.3,0.2,0.6,0.3,1,0.3c0.5,0,0.8-0.1,1.1-0.3c0.3-0.2,0.5-0.5,0.6-0.8s0.2-0.7,0.3-1.1c0-0.4,0.1-0.8,0.1-1.2c0-0.3,0-0.7-0.1-1.1
		c0-0.4-0.1-0.8-0.3-1.1c-0.1-0.3-0.3-0.6-0.6-0.8c-0.3-0.2-0.6-0.3-1.1-0.3c-0.4,0-0.8,0.1-1.1,0.3c-0.3,0.2-0.5,0.5-0.6,0.8
		c-0.2,0.3-0.2,0.7-0.3,1.1c0,0.4-0.1,0.8-0.1,1.1C547.2,17.4,547.2,17.7,547.3,18.1z M562.4,12l-12.7,17.5h-2L560.4,12H562.4z
		 M557.3,22.8c0.1-0.6,0.3-1.1,0.6-1.5c0.3-0.4,0.7-0.8,1.2-1c0.5-0.3,1.1-0.4,1.8-0.4c0.7,0,1.3,0.1,1.8,0.4c0.5,0.3,0.9,0.6,1.2,1
		c0.3,0.4,0.5,0.9,0.6,1.5c0.1,0.6,0.2,1.2,0.2,1.8c0,0.6-0.1,1.2-0.2,1.8c-0.1,0.6-0.4,1.1-0.7,1.5s-0.7,0.8-1.2,1
		c-0.5,0.3-1.1,0.4-1.7,0.4c-0.7,0-1.3-0.1-1.8-0.4c-0.5-0.2-0.9-0.6-1.2-1c-0.3-0.4-0.5-0.9-0.6-1.5c-0.1-0.6-0.2-1.2-0.2-1.8
		S557.1,23.4,557.3,22.8z M558.9,25.7c0,0.4,0.1,0.8,0.3,1.1c0.1,0.3,0.3,0.6,0.6,0.8c0.3,0.2,0.6,0.3,1,0.3c0.5,0,0.8-0.1,1.1-0.3
		c0.3-0.2,0.5-0.5,0.6-0.8s0.2-0.7,0.3-1.1c0-0.4,0.1-0.8,0.1-1.2c0-0.3,0-0.7-0.1-1.1c0-0.4-0.1-0.8-0.3-1.1s-0.3-0.6-0.6-0.8
		c-0.3-0.2-0.6-0.3-1.1-0.3c-0.4,0-0.8,0.1-1.1,0.3c-0.3,0.2-0.5,0.5-0.6,0.8s-0.2,0.7-0.3,1.1c0,0.4-0.1,0.8-0.1,1.1
		C558.8,24.9,558.9,25.3,558.9,25.7z"/>
</g>
<g>
	<path class="st1" d="M276.8,24.7c0.1,0.7,0.3,1.3,0.7,1.7c0.4,0.4,1,0.7,1.8,0.7c0.8,0,1.4-0.2,1.8-0.6s0.8-0.9,1-1.5
		c0.2-0.6,0.4-1.2,0.5-1.9c0.1-0.7,0.2-1.3,0.2-1.9l0,0c-0.4,0.7-0.9,1.2-1.5,1.5c-0.7,0.4-1.4,0.5-2.2,0.5c-0.8,0-1.6-0.1-2.2-0.4
		c-0.7-0.3-1.2-0.7-1.7-1.2c-0.5-0.5-0.8-1.1-1.1-1.8c-0.3-0.7-0.4-1.5-0.4-2.4c0-0.8,0.1-1.6,0.4-2.3c0.3-0.7,0.6-1.3,1.2-1.9
		c0.5-0.5,1.1-0.9,1.9-1.2c0.7-0.3,1.6-0.4,2.5-0.4c1.2,0,2.2,0.2,3,0.7c0.8,0.5,1.4,1.1,1.9,1.9c0.5,0.8,0.8,1.8,0.9,2.9
		c0.2,1.1,0.3,2.3,0.3,3.5c0,1-0.1,2.1-0.3,3.1c-0.2,1-0.6,2-1.1,2.9c-0.5,0.9-1.2,1.6-2,2.1c-0.8,0.5-1.8,0.8-3.1,0.8
		c-0.7,0-1.3-0.1-1.9-0.3c-0.6-0.2-1.1-0.5-1.6-1c-0.5-0.4-0.8-0.9-1.1-1.5c-0.3-0.6-0.5-1.2-0.5-1.9H276.8z M279.5,13.8
		c-0.5,0-0.9,0.1-1.3,0.3c-0.4,0.2-0.7,0.4-0.9,0.8c-0.2,0.3-0.4,0.7-0.6,1.1c-0.1,0.4-0.2,0.9-0.2,1.3c0,0.5,0.1,0.9,0.2,1.4
		c0.1,0.4,0.3,0.8,0.6,1.1c0.2,0.3,0.6,0.6,0.9,0.8c0.4,0.2,0.8,0.3,1.3,0.3c0.5,0,1-0.1,1.4-0.3c0.4-0.2,0.7-0.5,1-0.8
		s0.4-0.7,0.6-1.2s0.2-0.9,0.2-1.4c0-0.5-0.1-0.9-0.2-1.3s-0.3-0.8-0.6-1.1s-0.6-0.6-1-0.8S280,13.8,279.5,13.8z"/>
	<path class="st1" d="M288.2,16.6h3.4v3.3h-3.4V16.6z M288.2,25.7h3.4V29h-3.4V25.7z"/>
	<path class="st1" d="M306.1,29h-11.7c0-1.4,0.4-2.7,1-3.7c0.7-1.1,1.6-2,2.8-2.8c0.6-0.4,1.1-0.8,1.7-1.2s1.2-0.8,1.7-1.2
		c0.5-0.4,0.9-0.9,1.3-1.4c0.3-0.5,0.5-1.1,0.5-1.8c0-0.3,0-0.6-0.1-1c-0.1-0.4-0.2-0.7-0.4-1c-0.2-0.3-0.5-0.6-0.9-0.8
		c-0.4-0.2-0.9-0.3-1.5-0.3c-0.6,0-1,0.1-1.4,0.3c-0.4,0.2-0.7,0.5-0.9,0.9s-0.4,0.8-0.5,1.4c-0.1,0.5-0.2,1.1-0.2,1.7h-2.8
		c0-1,0.1-1.8,0.4-2.6c0.3-0.8,0.6-1.5,1.1-2.1c0.5-0.6,1.1-1.1,1.9-1.4c0.7-0.3,1.6-0.5,2.5-0.5c1,0,1.9,0.2,2.6,0.5
		c0.7,0.3,1.3,0.8,1.7,1.3c0.4,0.5,0.7,1.1,0.9,1.7s0.3,1.2,0.3,1.8c0,0.7-0.1,1.3-0.3,1.9c-0.2,0.6-0.5,1.1-0.9,1.5
		c-0.4,0.5-0.8,0.9-1.2,1.3c-0.5,0.4-0.9,0.8-1.4,1.1s-1,0.7-1.5,1c-0.5,0.3-0.9,0.6-1.4,0.9c-0.4,0.3-0.8,0.6-1.1,1
		c-0.3,0.3-0.5,0.7-0.6,1.1h8.4V29z"/>
	<path class="st1" d="M310,11.8h8.9v2.5h-6.8l-0.9,4.4l0,0c0.4-0.4,0.9-0.7,1.4-1c0.6-0.2,1.2-0.3,1.7-0.3c0.9,0,1.6,0.1,2.3,0.4
		c0.7,0.3,1.2,0.7,1.7,1.2c0.5,0.5,0.8,1.1,1,1.8s0.4,1.5,0.4,2.3c0,0.7-0.1,1.4-0.3,2.1c-0.2,0.7-0.6,1.4-1.1,2
		c-0.5,0.6-1.1,1.1-1.9,1.5c-0.8,0.4-1.7,0.6-2.7,0.6c-0.8,0-1.6-0.1-2.3-0.3c-0.7-0.2-1.3-0.6-1.9-1s-1-1-1.3-1.6
		c-0.3-0.6-0.5-1.4-0.5-2.3h2.8c0.1,0.9,0.4,1.6,1,2.1c0.6,0.5,1.3,0.7,2.2,0.7c0.6,0,1.1-0.1,1.5-0.3c0.4-0.2,0.7-0.5,1-0.8
		s0.4-0.7,0.5-1.2c0.1-0.5,0.2-1,0.2-1.5c0-0.5-0.1-0.9-0.2-1.4c-0.1-0.4-0.3-0.8-0.6-1.1c-0.3-0.3-0.6-0.6-1-0.8s-0.9-0.3-1.5-0.3
		c-0.6,0-1.1,0.1-1.7,0.3c-0.5,0.2-0.9,0.6-1.1,1.2h-2.8L310,11.8z"/>
	<path class="st1" d="M329.4,11.5h7.7c1.2,0,2.3,0.2,3,0.5s1.4,0.8,1.8,1.4c0.4,0.5,0.7,1.1,0.9,1.8c0.2,0.6,0.2,1.2,0.2,1.8
		c0,0.5-0.1,1.1-0.2,1.8c-0.2,0.6-0.4,1.2-0.9,1.8c-0.4,0.5-1,1-1.8,1.3s-1.8,0.5-3,0.5h-4.7V29h-3.1V11.5z M332.4,19.8h4.5
		c0.3,0,0.7,0,1.1-0.1c0.4-0.1,0.7-0.3,1-0.5c0.3-0.2,0.5-0.5,0.7-0.9s0.3-0.8,0.3-1.4c0-0.6-0.1-1-0.2-1.4
		c-0.2-0.4-0.4-0.7-0.7-0.9c-0.3-0.2-0.6-0.4-1-0.5S337.4,14,337,14h-4.5V19.8z"/>
	<path class="st1" d="M345.7,11.5h4.3l4.8,13.7h0l4.7-13.7h4.3V29H361V15.5h0L356.1,29h-2.5l-4.9-13.5h0V29h-2.9V11.5z"/>
</g>
<polyline class="st2" points="487.1,22.1 487.1,11.3 493.5,16.7 480.2,29 "/>
<polyline class="st2" points="487.1,21.1 487.1,31.9 493.5,26.5 480.2,14.3 "/>
<path class="st1" d="M616.8,26.1c0,1.1-0.9,2-2,2h-36.4c-1.1,0-2-0.9-2-2V15.2c0-1.1,0.9-2,2-2h36.4c1.1,0,2,0.9,2,2V26.1z"/>
<g>
	<path class="st1" d="M617.7,27c0,1.1-0.9,2-2,2h-38.3c-1.1,0-2-0.9-2-2V14.3c0-1.1,0.9-2,2-2h38.3c1.1,0,2,0.9,2,2V27z"/>
</g>
<path class="st1" d="M619.7,16.6v7.2c1.7-0.6,2.9-2,2.9-3.6C622.7,18.5,621.4,17.2,619.7,16.6z"/>
<path class="st3" d="M76.4,16.2c-2.4,0-4.4,2-4.4,4.4c0,2.4,2,4.4,4.4,4.4c2.4,0,4.4-2,4.4-4.4C80.8,18.2,78.8,16.2,76.4,16.2z"/>
<circle class="st1" cx="21.9" cy="20.7" r="5.4"/>
<circle class="st1" cx="35.5" cy="20.7" r="5.4"/>
<circle class="st1" cx="49.1" cy="20.7" r="5.4"/>
<circle class="st1" cx="62.7" cy="20.7" r="5.4"/>
<path class="st1" d="M76.4,15.2c-3,0-5.4,2.4-5.4,5.4c0,3,2.4,5.4,5.4,5.4s5.4-2.4,5.4-5.4C81.8,17.7,79.4,15.2,76.4,15.2z
	 M76.4,25.1c-2.4,0-4.4-2-4.4-4.4c0-2.4,2-4.4,4.4-4.4c2.4,0,4.4,2,4.4,4.4C80.8,23.1,78.8,25.1,76.4,25.1z"/>
<path class="st1" d="M162.3,25.1c-1.1-1.2-2.6-1.9-4.3-1.9c-1.7,0-3.3,0.8-4.4,2l4.3,4.3L162.3,25.1z"/>
<path class="st1" d="M158,19.7c2.7,0,5.1,1.1,6.8,2.9l1.5-1.5c-2.1-2.2-5-3.6-8.3-3.6c-3.3,0-6.2,1.4-8.3,3.6l1.5,1.5
	C152.8,20.8,155.3,19.7,158,19.7z"/>
<path class="st1" d="M158,13.8c4.3,0,8.2,1.8,11,4.7l1.4-1.4c-3.1-3.2-7.5-5.3-12.3-5.3c-4.9,0-9.2,2-12.4,5.3l1.4,1.4
	C149.7,15.6,153.6,13.8,158,13.8z"/>
<g>
</g>
<g>
</g>
<g>
</g>
<g>
</g>
<g>
</g>
<g>
</g>
<g>
</g>
<g>
</g>
<g>
</g>
<g>
</g>
<g>
</g>
<g>
</g>
<g>
</g>
<g>
</g>
<g>
</g>
</svg>
