<?xml version="1.0" encoding="utf-8"?>
<!-- Generator: Adobe Illustrator 18.0.0, SVG Export Plug-In . SVG Version: 6.00 Build 0)  -->
<!DOCTYPE svg PUBLIC "-//W3C//DTD SVG 1.1//EN" "http://www.w3.org/Graphics/SVG/1.1/DTD/svg11.dtd">
<svg version="1.1" id="Layer_1" xmlns="http://www.w3.org/2000/svg" xmlns:xlink="http://www.w3.org/1999/xlink" x="0px" y="0px"
	 viewBox="0 0 1480 1000" enable-background="new 0 0 1480 1000" xml:space="preserve">
<g>
	<g>
		<path fill="#FFFFFF" stroke="#FFFFFF" stroke-width="60" stroke-miterlimit="10" d="M730.8,685.1c1.8,1.3,1.8,3.9,1.8,3.9
			s0,2.6-1.8,3.9s-5.3,1.3-5.3,1.3s-3.5,0-5.3-1.3L448.9,496.3L181,695.5c-1.8,1.3-5.3,1.3-5.3,1.3c-1.8,0-3.5,0-5.3-1.3
			c-1.8-1.3-1.8-3.9-1.8-3.9s0-2.6,1.8-3.9l266-200.6L167,289.2c-1.8-1.3-1.8-3.9-1.8-3.9c0-1.3,0-2.6,1.8-3.9
			c1.8-1.3,5.3-1.3,5.3-1.3c1.8,0,3.5,0,5.3,1.3L448.9,478l267.8-199.2c1.8-1.3,5.3-1.3,5.3-1.3s3.5,0,5.3,1.3s1.8,3.9,1.8,3.9
			s0,2.6-1.8,3.9l-266,200.6L730.8,685.1z"/>
	</g>
</g>
</svg>
